<svg xmlns="http://www.w3.org/2000/svg" width="1000" height="450"><rect width="100%" height="100%" style="fill: rgb(244,244,244);"></rect><text transform="translate(150,0)" x="575" y="50" font-size="25px" font-family="Verdana, Geneva, Tahoma, sans-serif">COVID-19 Bar Graph</text><g transform="translate(100,100)"></g><g transform="translate(50,410)" fill="none" font-size="10" font-family="sans-serif" text-anchor="middle"><path class="domain" stroke="currentColor" d="M0.5,6V0.5H990.5V6"></path><g class="tick" opacity="1" transform="translate(108.28125,0)"><line stroke="currentColor" y2="6"></line><text fill="currentColor" y="9" dy="0.71em">Deaths_Today</text></g><g class="tick" opacity="1" transform="translate(262.96875,0)"><line stroke="currentColor" y2="6"></line><text fill="currentColor" y="9" dy="0.71em">Confirmed_Cases_Today</text></g><g class="tick" opacity="1" transform="translate(417.65625,0)"><line stroke="currentColor" y2="6"></line><text fill="currentColor" y="9" dy="0.71em">latest_deaths</text></g><g class="tick" opacity="1" transform="translate(572.34375,0)"><line stroke="currentColor" y2="6"></line><text fill="currentColor" y="9" dy="0.71em">latest_confirmed</text></g><g class="tick" opacity="1" transform="translate(727.03125,0)"><line stroke="currentColor" y2="6"></line><text fill="currentColor" y="9" dy="0.71em">latest_recovered</text></g><g class="tick" opacity="1" transform="translate(881.71875,0)"><line stroke="currentColor" y2="6"></line><text fill="currentColor" y="9" dy="0.71em">latest_critical</text></g><text y="130" x="490" stroke="black" font-size="18px" font-family="Verdana, Geneva, Tahoma, sans-serif" letter-spacing="1rem">COVID-DATA</text></g><g transform="translate(50,0)" fill="none" font-size="10" font-family="sans-serif" text-anchor="end"><path class="domain" stroke="currentColor" d="M-6,410.5H0.5V0.5H-6"></path><g class="tick" opacity="1" transform="translate(0,205.5)"><line stroke="currentColor" x2="-6"></line><text fill="currentColor" x="-9" dy="0.32em">0</text></g><text transform="rotate(-90)" y="150" x="-160" dy="-9.1em" text-anchor="end" stroke="black" font-size="20px">Scale In Numbers</text></g><rect transform="translate(50,0)" class="bar" x="61.875" y="205" width="92.8125" height="205" style="fill: lightgreen;"></rect><rect transform="translate(50,0)" class="bar" x="216.5625" y="205" width="92.8125" height="205" style="fill: lightgreen;"></rect><rect transform="translate(50,0)" class="bar" x="371.25" y="205" width="92.8125" height="205" style="fill: lightgreen;"></rect><rect transform="translate(50,0)" class="bar" x="525.9375" y="205" width="92.8125" height="205" style="fill: lightgreen;"></rect><rect transform="translate(50,0)" class="bar" x="680.625" y="205" width="92.8125" height="205" style="fill: lightgreen;"></rect><rect transform="translate(50,0)" class="bar" x="835.3125" y="205" width="92.8125" height="205" style="fill: lightgreen;"></rect></svg>